<?xml version="1.0" standalone="no"?>
<!DOCTYPE svg PUBLIC "-//W3C//DTD SVG 20010904//EN"
 "http://www.w3.org/TR/2001/REC-SVG-20010904/DTD/svg10.dtd">
<svg version="1.0" xmlns="http://www.w3.org/2000/svg"
 width="512.000000pt" height="512.000000pt" viewBox="0 0 512.000000 512.000000"
 preserveAspectRatio="xMidYMid meet">
<metadata>
Created by potrace 1.14, written by Peter Selinger 2001-2017
</metadata>
<g transform="translate(0.000000,512.000000) scale(0.100000,-0.100000)"
fill="#000000" stroke="none">
<path d="M0 2560 l0 -2560 2560 0 2560 0 0 2560 0 2560 -2560 0 -2560 0 0
-2560z m1974 1149 l43 -11 28 -121 c15 -67 54 -234 86 -371 32 -137 56 -252
54 -256 -3 -4 -73 -38 -157 -75 -84 -37 -154 -69 -156 -70 -7 -5 75 -189 115
-260 170 -296 428 -522 739 -645 61 -25 79 -28 85 -18 5 7 37 77 71 155 49
110 67 143 82 143 16 0 272 -57 631 -141 50 -12 96 -27 103 -33 19 -18 30
-142 21 -221 -24 -194 -187 -357 -385 -385 -47 -6 -118 -6 -208 0 -431 31
-843 214 -1155 514 -269 259 -458 600 -537 971 -24 114 -28 153 -28 315 l-1
185 32 68 c57 119 185 229 299 256 55 13 187 13 238 0z"/>
</g>
</svg>
